<?xml version="1.0" encoding="UTF-8" standalone="no"?><!DOCTYPE svg PUBLIC "-//W3C//DTD SVG 1.1//EN" "http://www.w3.org/Graphics/SVG/1.1/DTD/svg11.dtd"><svg width="100%" height="100%" viewBox="0 0 301 301" version="1.1" xmlns="http://www.w3.org/2000/svg" xmlns:xlink="http://www.w3.org/1999/xlink" xml:space="preserve" xmlns:serif="http://www.serif.com/" style="fill-rule:evenodd;clip-rule:evenodd;stroke-linejoin:round;stroke-miterlimit:2;"><g id="Cogs"><clipPath id="_clip1"><rect x="19.381" y="19.816" width="261.668" height="261.668"/></clipPath><g clip-path="url(#_clip1)"><path d="M228.756,124.074l-3.353,5.847c-1.226,2.167 -3.843,3.066 -6.173,2.207c-4.825,-1.798 -9.241,-4.374 -13.125,-7.604c-1.88,-1.554 -2.371,-4.293 -1.144,-6.419l3.352,-5.847c-2.821,-3.271 -5.029,-7.073 -6.501,-11.203l-6.746,0c-2.453,0 -4.579,-1.758 -4.988,-4.211c-0.818,-4.906 -0.858,-10.058 0,-15.168c0.409,-2.453 2.535,-4.252 4.988,-4.252l6.746,-0c1.472,-4.13 3.68,-7.932 6.501,-11.203l-3.352,-5.847c-1.227,-2.126 -0.777,-4.865 1.144,-6.419c3.884,-3.23 8.341,-5.806 13.125,-7.604c2.33,-0.859 4.947,0.04 6.173,2.207l3.353,5.847c4.293,-0.777 8.668,-0.777 12.961,-0l3.352,-5.847c1.227,-2.167 3.844,-3.066 6.174,-2.207c4.825,1.798 9.24,4.374 13.124,7.604c1.881,1.554 2.372,4.293 1.145,6.419l-3.353,5.847c2.822,3.271 5.029,7.073 6.501,11.203l6.746,-0c2.454,-0 4.58,1.758 4.988,4.211c0.818,4.906 0.859,10.058 0,15.168c-0.408,2.453 -2.534,4.252 -4.988,4.252l-6.746,0c-1.472,4.13 -3.679,7.932 -6.501,11.203l3.353,5.847c1.227,2.126 0.777,4.865 -1.145,6.419c-3.884,3.23 -8.34,5.806 -13.124,7.604c-2.33,0.859 -4.947,-0.04 -6.174,-2.207l-3.352,-5.847c-4.252,0.777 -8.668,0.777 -12.961,0Zm-4.293,-24.041c15.741,12.102 33.69,-5.846 21.588,-21.587c-15.741,-12.143 -33.69,5.846 -21.588,21.587Zm-47.141,62.923l13.778,6.869c4.13,2.371 5.929,7.4 4.293,11.898c-3.638,9.894 -10.793,18.971 -17.417,26.902c-3.025,3.639 -8.259,4.539 -12.388,2.167l-11.898,-6.868c-6.542,5.601 -14.146,10.057 -22.446,12.96l-0,13.738c-0,4.743 -3.394,8.831 -8.055,9.649c-10.057,1.717 -20.606,1.799 -31.032,-0c-4.702,-0.818 -8.177,-4.866 -8.177,-9.649l0,-13.738c-8.3,-2.943 -15.904,-7.359 -22.446,-12.96l-11.898,6.827c-4.088,2.372 -9.363,1.472 -12.388,-2.167c-6.624,-7.931 -13.615,-17.008 -17.254,-26.861c-1.635,-4.457 0.164,-9.486 4.293,-11.898l13.615,-6.869c-1.594,-8.545 -1.594,-17.335 0,-25.921l-13.615,-6.91c-4.129,-2.371 -5.969,-7.4 -4.293,-11.857c3.639,-9.894 10.63,-18.971 17.254,-26.902c3.025,-3.639 8.259,-4.539 12.388,-2.167l11.898,6.868c6.542,-5.601 14.146,-10.057 22.446,-12.96l0,-13.779c0,-4.702 3.353,-8.79 8.014,-9.608c10.058,-1.717 20.647,-1.799 31.073,-0.041c4.702,0.818 8.177,4.866 8.177,9.649l-0,13.738c8.3,2.944 15.904,7.359 22.446,12.961l11.898,-6.869c4.088,-2.372 9.363,-1.472 12.388,2.167c6.624,7.931 13.574,17.008 17.213,26.902c1.635,4.457 0.041,9.486 -4.089,11.898l-13.778,6.869c1.594,8.586 1.594,17.376 -0,25.962Zm-48.082,8.627c24.205,-31.482 -11.734,-67.42 -43.216,-43.216c-24.204,31.482 11.735,67.42 43.216,43.216Zm99.516,74.698l-3.353,5.847c-1.226,2.167 -3.843,3.066 -6.173,2.207c-4.825,-1.799 -9.241,-4.374 -13.125,-7.604c-1.88,-1.554 -2.371,-4.293 -1.144,-6.419l3.352,-5.847c-2.821,-3.271 -5.029,-7.073 -6.501,-11.203l-6.746,0c-2.453,0 -4.579,-1.758 -4.988,-4.211c-0.818,-4.906 -0.858,-10.058 0,-15.168c0.409,-2.453 2.535,-4.252 4.988,-4.252l6.746,-0c1.472,-4.13 3.68,-7.932 6.501,-11.203l-3.352,-5.847c-1.227,-2.126 -0.777,-4.865 1.144,-6.419c3.884,-3.23 8.341,-5.806 13.125,-7.604c2.33,-0.859 4.947,0.04 6.173,2.207l3.353,5.847c4.293,-0.777 8.668,-0.777 12.961,-0l3.352,-5.847c1.227,-2.167 3.844,-3.066 6.174,-2.207c4.825,1.798 9.24,4.374 13.124,7.604c1.881,1.554 2.372,4.293 1.145,6.419l-3.353,5.847c2.822,3.271 5.029,7.073 6.501,11.203l6.746,-0c2.454,-0 4.58,1.758 4.988,4.211c0.818,4.906 0.859,10.058 0,15.168c-0.408,2.453 -2.534,4.252 -4.988,4.252l-6.746,0c-1.472,4.13 -3.679,7.932 -6.501,11.203l3.353,5.847c1.227,2.126 0.777,4.865 -1.145,6.419c-3.884,3.23 -8.34,5.805 -13.124,7.604c-2.33,0.859 -4.947,-0.04 -6.174,-2.207l-3.352,-5.847c-4.252,0.777 -8.668,0.777 -12.961,-0Zm-4.293,-24.082c15.741,12.103 33.69,-5.846 21.588,-21.587c-15.741,-12.102 -33.69,5.846 -21.588,21.587Z" style="fill-rule:nonzero;"/></g><rect x="0.215" y="0.65" width="300" height="300" style="fill:none;"/></g></svg>