<?xml version="1.0" encoding="UTF-8" standalone="no"?>
<!DOCTYPE svg PUBLIC "-//W3C//DTD SVG 1.1//EN" "http://www.w3.org/Graphics/SVG/1.1/DTD/svg11.dtd">
<svg width="100%" height="100%" viewBox="0 0 596 426" version="1.1" xmlns="http://www.w3.org/2000/svg" xmlns:xlink="http://www.w3.org/1999/xlink" xml:space="preserve" xmlns:serif="http://www.serif.com/" style="fill-rule:evenodd;clip-rule:evenodd;">
    <g id="Layer-1" serif:id="Layer 1">
        <path id="path57830" d="M307.109,312.374L286.855,313.071L245.103,310.527L204.678,303.844L188.742,307.815L198.927,322.411L245.669,327.354L275.106,360.201L335.504,350.955L364.724,382.616L403.414,373.801L432.808,394.811L421.346,380.462L444.809,382.024L431.788,374.591L475.831,364.662L466.451,359.008L437.225,361.245L393.533,311.993C395.888,301.195 399.912,289.546 409.097,275.267C411.767,268.94 416.494,265.313 422.6,263.492C433.455,266.128 440.503,278.971 448.491,289.294C461.065,281.909 457.773,271.124 452.119,259.91C450.372,251.355 451.408,243.245 441.083,233.32C428.036,225.745 413.685,225.895 401.125,228.892L404.272,172.548L427.668,121.278L379.05,36.383L343.28,23.63L305.275,101.207L294.863,154.123L262.773,119.67L248.519,134.285L164.795,64.288L90.201,80.997L119.746,152.422L223.967,280.935L254.236,271.775L281.373,289.725L308.438,279.441L307.109,312.374Z" style="fill:white;fill-rule:nonzero;stroke:black;stroke-width:4.25px;"/>
        <path id="path57832" d="M294.863,154.123L363.562,246.869" style="fill:none;fill-rule:nonzero;stroke:black;stroke-width:4.25px;"/>
        <path id="path60725" d="M307.109,312.374L297.256,357.473" style="fill:none;fill-rule:nonzero;stroke:black;stroke-width:4.25px;"/>
        <path id="path60727" d="M403.414,373.801L412.334,366.639L424.064,369.734L437.225,361.245" style="fill:none;fill-rule:nonzero;stroke:black;stroke-width:4.25px;"/>
        <path id="path60729" d="M401.125,228.892L382.434,235.316L386.498,269.066L409.097,275.267" style="fill:none;fill-rule:nonzero;stroke:black;stroke-width:4.25px;"/>
        <path id="path60731" d="M422.6,263.492C425.721,259.738 431.126,256.855 452.119,259.91" style="fill:none;fill-rule:nonzero;stroke:black;stroke-width:4.25px;"/>
        <path id="path160" d="M429.695,259.292C430.7,254.142 431.567,248.736 440.728,258.697L440.713,258.755" style="fill:none;fill-rule:nonzero;stroke:black;stroke-width:4.25px;"/>
    </g>
</svg>
