<?xml version="1.0" encoding="UTF-8" standalone="no"?><!DOCTYPE svg PUBLIC "-//W3C//DTD SVG 1.1//EN" "http://www.w3.org/Graphics/SVG/1.1/DTD/svg11.dtd"><svg width="100%" height="100%" viewBox="0 0 284 284" version="1.1" xmlns="http://www.w3.org/2000/svg" xmlns:xlink="http://www.w3.org/1999/xlink" xml:space="preserve" xmlns:serif="http://www.serif.com/" style="fill-rule:evenodd;clip-rule:evenodd;stroke-linecap:round;stroke-linejoin:round;stroke-miterlimit:1.5;"><g id="Gripper"><path d="M6.378,75.3l68.549,-68.549l63.005,97.28l-34.274,34.274l-97.28,-63.005Z" style="fill:none;stroke:#fff;stroke-width:12px;"/><path d="M228.273,272.765l-9.2,9.2c-0,0 -67.866,9.38 -104.935,-66.012c-16.056,-32.655 -9.799,-78.329 -9.799,-78.329l9.2,-9.2c-0,-0 -6.257,45.674 9.799,78.329c37.069,75.392 104.935,66.012 104.935,66.012Z" style="fill:#fff;stroke:#fff;stroke-width:3px;"/><path d="M272.383,228.656l9.2,-9.2c-0,-0 9.38,-67.867 -66.013,-104.935c-32.655,-16.056 -78.329,-9.8 -78.329,-9.8l-9.2,9.201c0,-0 45.674,-6.257 78.329,9.799c75.393,37.069 66.013,104.935 66.013,104.935Z" style="fill:#fff;stroke:#fff;stroke-width:3px;"/></g></svg>