<?xml version="1.0" encoding="UTF-8" standalone="no"?><!DOCTYPE svg PUBLIC "-//W3C//DTD SVG 1.1//EN" "http://www.w3.org/Graphics/SVG/1.1/DTD/svg11.dtd"><svg width="100%" height="100%" viewBox="0 0 306 313" version="1.1" xmlns="http://www.w3.org/2000/svg" xmlns:xlink="http://www.w3.org/1999/xlink" xml:space="preserve" xmlns:serif="http://www.serif.com/" style="fill-rule:evenodd;clip-rule:evenodd;stroke-linecap:round;stroke-linejoin:round;stroke-miterlimit:1.5;"><g id="Payload"><path d="M282.056,96.203c-0,-6.454 -5.24,-11.694 -11.694,-11.694l-234.737,0c-6.454,0 -11.694,5.24 -11.694,11.694l-0,198.711c-0,6.454 5.24,11.694 11.694,11.694l234.737,-0c6.454,-0 11.694,-5.24 11.694,-11.694l-0,-198.711Z" style="fill:none;stroke:#fff;stroke-width:12px;"/><path d="M299.162,9.477c-0,-1.584 -1.286,-2.869 -2.869,-2.869l-286.599,-0c-1.584,-0 -2.869,1.285 -2.869,2.869l-0,51.734c-0,1.583 1.285,2.869 2.869,2.869l286.599,-0c1.583,-0 2.869,-1.286 2.869,-2.869l-0,-51.734Z" style="fill:none;stroke:#fff;stroke-width:12px;"/></g></svg>