<?xml version="1.0" encoding="UTF-8" standalone="no"?><!DOCTYPE svg PUBLIC "-//W3C//DTD SVG 1.1//EN" "http://www.w3.org/Graphics/SVG/1.1/DTD/svg11.dtd"><svg width="100%" height="100%" viewBox="0 0 310 301" version="1.1" xmlns="http://www.w3.org/2000/svg" xmlns:xlink="http://www.w3.org/1999/xlink" xml:space="preserve" xmlns:serif="http://www.serif.com/" style="fill-rule:evenodd;clip-rule:evenodd;stroke-linecap:round;stroke-linejoin:round;stroke-miterlimit:1.5;"><g id="Swooping-motion" serif:id="Swooping motion"><g><g><g><path d="M51.99,137.72l10.072,3.978l-7.169,10.781l-5.036,-1.989l2.133,-12.77Z" style="fill:none;stroke:#fff;stroke-width:3.5px;"/><path d="M41.615,169.237l-1.351,-0.534c-0,0 -3.978,-6.538 2.101,-13.688c2.633,-3.097 7.592,-4.486 7.592,-4.486l1.351,0.534c0,0 -4.959,1.389 -7.592,4.486c-6.078,7.15 -2.101,13.688 -2.101,13.688Z" style="stroke:#fff;stroke-width:3px;"/><path d="M48.096,171.797l1.352,0.534c0,-0 7.372,-2.055 7.82,-11.429c0.194,-4.061 -2.477,-8.463 -2.477,-8.463l-1.352,-0.534c0,-0 2.671,4.402 2.477,8.463c-0.447,9.374 -7.82,11.429 -7.82,11.429Z" style="stroke:#fff;stroke-width:3px;"/></g><clipPath id="_clip1"><path d="M119.773,130.125l-100.683,-38.674l-18.701,48.686l100.683,38.673l18.701,-48.685Z"/></clipPath><g clip-path="url(#_clip1)"><clipPath id="_clip2"><polygon points="25.102,75.801 125.784,114.474 87.111,215.157 -13.572,176.483 25.102,75.801 "/></clipPath><g clip-path="url(#_clip2)"><g><path d="M113.406,142.284l-12.708,-4.881l0.038,-0.099c0.98,-2.553 -0.299,-5.428 -2.852,-6.408c-2.553,-0.981 -5.428,0.298 -6.409,2.851l-0.038,0.099l-12.708,-4.882c-0.816,-0.313 -1.732,0.094 -2.046,0.911c-0.313,0.816 0.095,1.731 0.911,2.045l11.132,4.276l-0.643,1.675c-0.013,0.033 -0.024,0.066 -0.036,0.099l-50.642,-19.452c0.013,-0.033 0.028,-0.065 0.041,-0.098l0.643,-1.674l11.132,4.276c0.816,0.313 1.732,-0.094 2.046,-0.91c0.313,-0.817 -0.094,-1.732 -0.911,-2.046l-12.708,-4.881l0.038,-0.099c0.98,-2.553 -0.299,-5.428 -2.852,-6.409c-2.553,-0.98 -5.428,0.299 -6.409,2.852l-0.038,0.099l-12.708,-4.882c-0.816,-0.313 -1.732,0.094 -2.045,0.91c-0.314,0.816 0.094,1.732 0.91,2.046l11.132,4.276l-0.643,1.674c-1.315,3.423 0.4,7.276 3.822,8.591c2.313,0.888 4.821,0.392 6.611,-1.078l9.297,3.571l-0.21,4.665c-0.161,3.591 1.984,6.869 5.34,8.158l16.131,6.196c3.355,1.289 7.144,0.29 9.427,-2.485l2.968,-3.607l9.297,3.571c0.346,2.291 1.876,4.339 4.189,5.227c3.422,1.315 7.276,-0.4 8.59,-3.822l0.644,-1.675l11.132,4.276c0.816,0.313 1.732,-0.094 2.045,-0.91c0.314,-0.816 -0.094,-1.732 -0.91,-2.046Zm-82.025,-31.62c0.355,-0.923 1.394,-1.386 2.318,-1.031c0.923,0.355 1.386,1.394 1.031,2.318l-0.038,0.098l-3.349,-1.286l0.038,-0.099Zm-1.391,8.623c-1.792,-0.688 -2.69,-2.707 -2.002,-4.499l0.643,-1.675l6.502,2.497l-0.643,1.675c-0.688,1.793 -2.707,2.691 -4.5,2.002Zm43.016,19.971c-1.416,1.721 -3.766,2.341 -5.847,1.542l-16.131,-6.197c-2.081,-0.799 -3.412,-2.832 -3.312,-5.059l0.163,-3.612l27.424,10.534l-2.297,2.792Zm21.425,-4.375c0.354,-0.924 1.394,-1.387 2.318,-1.032c0.923,0.355 1.386,1.395 1.031,2.318l-0.038,0.099l-3.349,-1.287l0.038,-0.098Zm3.109,6.62c-0.689,1.793 -2.707,2.691 -4.5,2.003c-1.792,-0.689 -2.691,-2.708 -2.002,-4.5l0.643,-1.675l6.502,2.498l-0.643,1.674Z" style="fill:#fff;fill-rule:nonzero;"/></g></g></g></g><g><g><path d="M246.297,140.658l10.829,0.062l-2.78,12.645l-5.414,-0.031l-2.635,-12.676Z" style="fill:none;stroke:#fff;stroke-width:3.5px;"/><path d="M243.117,172.692l-1.453,-0.009c-0,0 -1.155,-3.553 1.923,-12.418c1.333,-3.84 5.453,-6.93 5.453,-6.93l1.453,0.008c-0,0 -4.12,3.09 -5.453,6.93c-3.078,8.866 -1.923,12.419 -1.923,12.419Z" style="stroke:#fff;stroke-width:3px;"/><path d="M259.262,173.574l1.454,0.009c-0,-0 1.871,-4.326 -1.106,-13.226c-1.289,-3.855 -5.373,-6.992 -5.373,-6.992l-1.453,-0.009c-0,0 4.084,3.137 5.373,6.992c2.976,8.901 1.105,13.226 1.105,13.226Z" style="stroke:#fff;stroke-width:3px;"/></g><clipPath id="_clip3"><path d="M306.733,109.039l-107.854,0.401l0.193,52.153l107.854,-0.401l-0.193,-52.153Z"/></clipPath><g clip-path="url(#_clip3)"><g><path d="M305.2,122.678l-13.613,0.051l-0.001,-0.106c-0.01,-2.735 -2.243,-4.951 -4.978,-4.941c-2.735,0.01 -4.952,2.243 -4.942,4.978l0.001,0.106l-13.614,0.05c-0.874,0.004 -1.581,0.715 -1.577,1.589c0.003,0.874 0.714,1.581 1.589,1.577l11.925,-0.044l0.006,1.794c0.001,0.036 0.003,0.07 0.004,0.106l-54.25,0.201c0.001,-0.035 0.003,-0.07 0.003,-0.105l-0.007,-1.795l11.925,-0.044c0.875,-0.003 1.581,-0.714 1.577,-1.589c-0.003,-0.874 -0.714,-1.58 -1.588,-1.577l-13.614,0.051l-0.001,-0.106c-0.01,-2.735 -2.243,-4.952 -4.978,-4.941c-2.735,0.01 -4.952,2.243 -4.942,4.978l0.001,0.106l-13.614,0.05c-0.874,0.003 -1.58,0.715 -1.577,1.589c0.003,0.874 0.715,1.58 1.589,1.577l11.925,-0.044l0.007,1.794c0.013,3.666 3.007,6.637 6.673,6.624c2.477,-0.009 4.636,-1.38 5.772,-3.399l9.96,-0.037l1.493,4.425c1.149,3.406 4.336,5.685 7.93,5.672l17.281,-0.065c3.594,-0.013 6.764,-2.316 7.888,-5.73l1.46,-4.436l9.96,-0.037c1.151,2.01 3.319,3.365 5.797,3.356c3.666,-0.014 6.637,-3.007 6.623,-6.673l-0.006,-1.794l11.925,-0.045c0.874,-0.003 1.58,-0.714 1.577,-1.588c-0.003,-0.875 -0.715,-1.581 -1.589,-1.578Zm-87.909,0.221c-0.003,-0.989 0.799,-1.797 1.788,-1.8c0.989,-0.004 1.797,0.798 1.801,1.787l-0,0.106l-3.588,0.013l-0.001,-0.106Zm1.826,8.542c-1.92,0.007 -3.488,-1.55 -3.495,-3.47l-0.007,-1.794l6.965,-0.026l0.007,1.794c0.007,1.921 -1.55,3.489 -3.47,3.496Zm47.328,3.042c-0.697,2.118 -2.663,3.546 -4.892,3.554l-17.281,0.065c-2.229,0.008 -4.206,-1.406 -4.918,-3.518l-1.156,-3.425l29.377,-0.109l-1.13,3.433Zm18.387,-11.834c-0.004,-0.99 0.798,-1.798 1.787,-1.801c0.99,-0.004 1.798,0.798 1.801,1.787l0.001,0.106l-3.589,0.013l0,-0.105Zm5.296,5.045c0.007,1.921 -1.55,3.489 -3.47,3.496c-1.92,0.007 -3.488,-1.549 -3.496,-3.47l-0.006,-1.794l6.965,-0.026l0.007,1.794Z" style="fill:#fff;fill-rule:nonzero;"/></g></g></g><path d="M223.154,171.898l2.364,-9.78l-9.243,3.976l6.879,5.804Z" style="fill:#fff;"/><path d="M220.875,167.621c-14.979,15.428 -39.543,21.269 -77.641,21.269c-42.331,-0 -76.699,-6.359 -76.699,-26.772" style="fill:none;stroke:#fff;stroke-width:3px;"/><g><path d="M152.346,198.622c0,-2.05 -1.664,-3.715 -3.714,-3.715l-10.523,0c-2.05,0 -3.714,1.665 -3.714,3.715l-0,7.428c-0,2.05 1.664,3.714 3.714,3.714l10.523,0c2.05,0 3.714,-1.664 3.714,-3.714l0,-7.428Z" style="fill:none;stroke:#fff;stroke-width:2.5px;"/><path d="M140.749,209.764l0.026,-14.857l5.217,0l0,14.857" style="fill:none;stroke:#fff;stroke-width:2.5px;"/></g><g><path d="M259.884,179.645c0.083,-2.048 -1.512,-3.779 -3.56,-3.862l-10.514,-0.427c-2.049,-0.083 -3.779,1.512 -3.862,3.561l-0.302,7.422c-0.083,2.048 1.512,3.779 3.56,3.862l10.515,0.427c2.048,0.083 3.779,-1.512 3.862,-3.56l0.301,-7.423Z" style="fill:none;stroke:#fff;stroke-width:2.5px;"/><path d="M247.844,190.308l0.629,-14.844l5.213,0.212l-0.603,14.845" style="fill:none;stroke:#fff;stroke-width:2.5px;"/></g></g><rect x="9.848" y="0.608" width="300" height="300" style="fill:none;"/></g></svg>