<?xml version="1.0" encoding="UTF-8" standalone="no"?><!DOCTYPE svg PUBLIC "-//W3C//DTD SVG 1.1//EN" "http://www.w3.org/Graphics/SVG/1.1/DTD/svg11.dtd"><svg width="100%" height="100%" viewBox="0 0 301 301" version="1.1" xmlns="http://www.w3.org/2000/svg" xmlns:xlink="http://www.w3.org/1999/xlink" xml:space="preserve" xmlns:serif="http://www.serif.com/" style="fill-rule:evenodd;clip-rule:evenodd;stroke-linecap:round;stroke-linejoin:round;stroke-miterlimit:1.5;"><g id="Swoop"><rect x="0.329" y="0.701" width="300" height="300" style="fill:none;"/><g><g><g><path d="M135.222,153.75l24.503,9.678l-17.441,26.227l-12.251,-4.839l5.189,-31.066Z" style="fill:none;stroke:#fff;stroke-width:5.5px;"/><path d="M109.984,230.424l-3.288,-1.299c-0,-0 -9.677,-15.906 5.111,-33.3c6.406,-7.534 18.469,-10.913 18.469,-10.913l3.289,1.299c-0,0 -12.064,3.379 -18.469,10.913c-14.788,17.394 -5.112,33.3 -5.112,33.3Z" style="fill:#fff;stroke:#fff;stroke-width:3px;"/><path d="M125.751,236.651l3.289,1.299c-0,0 17.934,-5 19.024,-27.804c0.472,-9.878 -6.027,-20.588 -6.027,-20.588l-3.288,-1.299c-0,-0 6.498,10.71 6.026,20.588c-1.09,22.805 -19.024,27.804 -19.024,27.804Z" style="fill:#fff;stroke:#fff;stroke-width:3px;"/></g><clipPath id="_clip1"><path d="M300.119,135.275l-244.933,-94.082l-45.493,118.438l244.933,94.082l45.493,-118.438Z"/></clipPath><g clip-path="url(#_clip1)"><g><path d="M284.632,164.855l-30.917,-11.875l0.092,-0.24c2.386,-6.211 -0.726,-13.204 -6.937,-15.59c-6.211,-2.386 -13.205,0.726 -15.591,6.937l-0.092,0.24l-30.916,-11.876c-1.985,-0.762 -4.213,0.229 -4.976,2.215c-0.762,1.985 0.229,4.213 2.214,4.975l27.082,10.403l-1.565,4.074c-0.031,0.08 -0.056,0.161 -0.086,0.242l-123.198,-47.322c0.033,-0.079 0.068,-0.157 0.099,-0.237l1.565,-4.074l27.081,10.402c1.986,0.763 4.213,-0.229 4.976,-2.214c0.763,-1.985 -0.229,-4.213 -2.214,-4.976l-30.916,-11.875l0.092,-0.24c2.386,-6.211 -0.726,-13.205 -6.937,-15.591c-6.211,-2.385 -13.205,0.727 -15.591,6.938l-0.092,0.24l-30.916,-11.876c-1.986,-0.762 -4.214,0.229 -4.976,2.214c-0.763,1.986 0.229,4.213 2.214,4.976l27.082,10.402l-1.565,4.075c-3.198,8.325 0.973,17.7 9.299,20.898c5.625,2.161 11.727,0.953 16.082,-2.624l22.618,8.688l-0.511,11.35c-0.393,8.735 4.826,16.71 12.989,19.845l39.243,15.074c8.162,3.135 17.379,0.705 22.934,-6.047l7.219,-8.773l22.618,8.688c0.84,5.572 4.564,10.554 10.19,12.715c8.325,3.198 17.7,-0.974 20.898,-9.299l1.565,-4.074l27.082,10.402c1.985,0.763 4.213,-0.228 4.976,-2.214c0.762,-1.985 -0.229,-4.213 -2.214,-4.976Zm-199.545,-76.922c0.863,-2.247 3.392,-3.373 5.639,-2.51c2.246,0.863 3.372,3.393 2.509,5.639l-0.092,0.24l-8.148,-3.13l0.092,-0.239Zm-3.383,20.977c-4.361,-1.675 -6.546,-6.586 -4.871,-10.947l1.565,-4.074l15.818,6.076l-1.565,4.074c-1.675,4.361 -6.586,6.546 -10.947,4.871Zm104.646,48.583c-3.446,4.188 -9.162,5.695 -14.225,3.75l-39.243,-15.073c-5.063,-1.945 -8.3,-6.892 -8.056,-12.309l0.395,-8.786l66.716,25.627l-5.587,6.791Zm52.119,-10.644c0.863,-2.247 3.393,-3.372 5.639,-2.509c2.247,0.863 3.373,3.392 2.51,5.639l-0.092,0.239l-8.149,-3.129l0.092,-0.24Zm7.565,16.106c-1.676,4.361 -6.586,6.546 -10.947,4.871c-4.361,-1.675 -6.546,-6.586 -4.871,-10.946l1.565,-4.075l15.817,6.076l-1.564,4.074Z" style="fill:#fff;fill-rule:nonzero;"/></g></g></g><path d="M212.021,193.038l67.817,24.819" style="fill:none;stroke:#fff;stroke-width:0.95px;"/><path d="M179.373,208.808l67.817,24.819" style="fill:none;stroke:#fff;stroke-width:0.95px;"/><path d="M178.504,235.389l67.817,24.819" style="fill:none;stroke:#fff;stroke-width:0.95px;"/><path d="M0.54,98.028l67.817,24.819" style="fill:none;stroke:#fff;stroke-width:0.95px;"/><path d="M13.303,135.043l67.818,24.82" style="fill:none;stroke:#fff;stroke-width:0.95px;"/><path d="M13.303,166.132l67.818,24.819" style="fill:none;stroke:#fff;stroke-width:0.95px;"/></g></g></svg>