<?xml version="1.0" encoding="UTF-8" standalone="no"?>
<!DOCTYPE svg PUBLIC "-//W3C//DTD SVG 1.1//EN" "http://www.w3.org/Graphics/SVG/1.1/DTD/svg11.dtd">
<svg width="100%" height="100%" viewBox="0 0 417 105" version="1.1" xmlns="http://www.w3.org/2000/svg" xmlns:xlink="http://www.w3.org/1999/xlink" xml:space="preserve" xmlns:serif="http://www.serif.com/" style="fill-rule:evenodd;clip-rule:evenodd;stroke-linejoin:round;stroke-miterlimit:2;">
    <g transform="matrix(4.16667,0,0,4.16667,0,0)">
        <path d="M18.654,20.623L14.002,20.623C9.097,20.623 7.274,19.025 7.274,14.726C7.274,8.052 10.42,4.377 16.132,4.377L22.304,4.377L23.274,0.109L14.656,0.109C9.683,0.109 6.655,0.953 4.523,2.929C1.719,5.537 0,10.448 0,15.895C0,22.609 2.429,24.892 9.608,24.892L17.703,24.892L18.654,20.623Z" style="fill:rgb(18,158,217);fill-rule:nonzero;"/>
        <path d="M29.626,19.29L34.655,19.29L36.673,10.275L41.067,19.29L46.302,19.29L49.368,5.69L44.338,5.69L42.562,13.535L38.898,5.69L32.673,5.69L29.626,19.29Z" style="fill:rgb(18,158,217);fill-rule:nonzero;"/>
        <path d="M81.378,19.29L92.353,19.29C97.345,19.29 100,16.298 100,10.659C100,7.167 98.429,5.69 94.746,5.69L84.427,5.69L81.378,19.29ZM88.914,9.182L91.904,9.182C94.017,9.182 94.595,9.642 94.595,11.33C94.595,14.074 93.212,15.8 91.007,15.8L87.418,15.8L88.914,9.182Z" style="fill:rgb(18,158,217);"/>
        <path d="M75.507,13.535L71.47,13.535L73.041,11.139C74.162,9.393 74.498,9.182 76.125,9.182L76.48,9.182L75.507,13.535ZM63.375,17.577L61.347,14.994C64.468,14.322 66.113,12.557 66.113,9.834C66.113,6.879 64.394,5.69 60.076,5.69L51.101,5.69L48.037,19.29L53.308,19.29L55.589,9.182L58.935,9.182C60.431,9.182 61.216,9.642 61.216,10.505C61.216,11.733 60.505,12.346 59.046,12.346L55.365,12.346L57.888,16.701C59.365,19.214 59.496,19.29 62.451,19.29L67.716,19.29L69.363,16.855L74.916,16.855L74.373,19.29L79.646,19.29L82.71,5.69L76.355,5.69C71.886,5.69 71.718,5.787 68.82,9.892L63.375,17.577Z" style="fill:rgb(18,158,217);"/>
        <path d="M18.187,8.807L21.395,8.809L22.079,5.691L16.372,5.69C11.362,5.69 8.632,8.875 8.632,14.745C8.632,18.121 10.072,19.29 14.26,19.29L19.024,19.29L19.761,16.011L16.989,16.011C16.663,16.011 16.099,15.979 15.819,15.961C15.807,15.958 15.785,15.953 15.785,15.953C15.573,15.937 15.451,15.915 15.239,15.871C15.134,15.848 15.057,15.835 14.963,15.81C14.826,15.771 14.743,15.748 14.666,15.721C13.875,15.463 13.51,14.881 13.497,13.695C13.524,10.54 15.203,8.807 18.187,8.807Z" style="fill:rgb(255,243,37);fill-rule:nonzero;"/>
        <path d="M24.228,5.691L22.008,5.691L21.325,8.738L18.116,8.736C15.107,8.736 13.423,10.496 13.423,13.701C13.423,15.379 14.119,15.837 15.651,15.951C15.651,15.951 15.852,15.964 16.111,15.978C14.465,15.848 13.916,15.28 13.916,13.841C13.916,10.908 15.474,9.296 18.184,9.296L21.63,9.297C23.779,9.297 24.34,9.718 24.34,11.33C24.34,14.379 22.957,16.01 20.396,16.01L19.69,16.011L18.954,19.29L21.947,19.29C27.031,19.29 29.928,16.182 29.928,10.716C29.928,7.034 28.415,5.691 24.228,5.691Z" style="fill:rgb(18,158,217);fill-rule:nonzero;"/>
    </g>
</svg>
