<?xml version="1.0" encoding="UTF-8" standalone="no"?>
<!DOCTYPE svg PUBLIC "-//W3C//DTD SVG 1.1//EN" "http://www.w3.org/Graphics/SVG/1.1/DTD/svg11.dtd">
<svg width="100%" height="100%" viewBox="0 0 780 288" version="1.1" xmlns="http://www.w3.org/2000/svg" xmlns:xlink="http://www.w3.org/1999/xlink" xml:space="preserve" xmlns:serif="http://www.serif.com/" style="fill-rule:evenodd;clip-rule:evenodd;stroke-linejoin:round;stroke-miterlimit:2;">
    <g transform="matrix(4.16667,0,0,4.16667,0,0)">
        <path d="M109.18,40.273C108.37,44.29 105.267,44.495 104.652,44.495C102.9,44.495 101.855,43.482 101.855,41.79C101.855,41.404 101.912,40.878 102.01,40.351L103.929,30.79L103.938,30.753L101.67,30.753L99.714,40.558L99.689,40.698C99.605,41.141 99.526,41.561 99.526,42.105C99.526,44.74 101.256,46.507 103.835,46.507C105.721,46.507 107.236,45.889 108.342,44.667L108.048,46.282L108.041,46.32L110.276,46.32L113.364,30.79L113.371,30.753L111.071,30.753L109.18,40.273Z" style="fill:rgb(35,31,32);fill-rule:nonzero;"/>
        <path d="M124.635,30.564C122.883,30.564 121.331,31.28 120.354,32.538L120.705,30.79L120.711,30.753L118.476,30.753L115.387,46.282L115.38,46.32L117.649,46.32L119.54,36.795C120.023,34.351 121.9,32.578 124.005,32.578C124.909,32.578 125.621,32.934 126.181,33.665L126.202,33.693L128.043,32.044L128.024,32.021C127.174,31.039 126.064,30.564 124.635,30.564Z" style="fill:rgb(35,31,32);fill-rule:nonzero;"/>
        <path d="M87.149,32.728L87.142,32.766L94.878,32.766L84.579,44.411L84.573,44.417L84.185,46.32L95.163,46.32L95.554,44.306L87.347,44.306L97.678,32.661L97.683,32.654L98.07,30.753L87.533,30.753L87.149,32.728Z" style="fill:rgb(35,31,32);fill-rule:nonzero;"/>
        <path d="M128.332,46.282L128.324,46.32L130.591,46.32L133.684,30.753L131.455,30.753L128.332,46.282Z" style="fill:rgb(35,31,32);fill-rule:nonzero;"/>
        <path d="M159.072,30.565C157.207,30.565 155.751,31.136 154.632,32.314L156.391,23.646L154.123,23.646L149.567,46.322L151.835,46.322L153.726,36.796C154.536,32.781 157.667,32.578 158.285,32.578C160.019,32.578 161.054,33.589 161.054,35.282C161.054,35.666 160.995,36.19 160.896,36.722L158.972,46.322L161.237,46.322L163.226,36.513C163.321,35.992 163.385,35.551 163.385,34.966C163.385,32.333 161.649,30.565 159.072,30.565Z" style="fill:rgb(35,31,32);fill-rule:nonzero;"/>
        <path d="M144.041,30.564C139.928,30.564 137.041,33.461 136.118,38.513C135.952,39.359 135.895,40.306 135.895,40.91C135.895,44.362 137.99,46.507 141.366,46.507C143.329,46.507 145.121,45.755 146.547,44.33L146.567,44.309L145.26,42.713L145.236,42.685L145.212,42.712C144.009,43.978 142.931,44.495 141.491,44.495C139.882,44.495 138.161,43.537 138.161,40.847C138.161,40.005 138.261,39.309 138.41,38.525C138.653,37.205 139.2,35.361 140.415,34.078C141.381,33.083 142.526,32.578 143.821,32.578C145.173,32.578 146.019,33.059 146.843,34.292L146.862,34.323L148.526,32.917L148.55,32.897L148.532,32.872C147.396,31.275 146.01,30.564 144.041,30.564Z" style="fill:rgb(35,31,32);fill-rule:nonzero;"/>
        <path d="M132.296,26.48L134.568,26.48L135.133,23.646L132.869,23.646L132.296,26.48Z" style="fill:rgb(35,31,32);fill-rule:nonzero;"/>
        <path d="M110.249,26.48L112.522,26.48L113.084,23.646L110.823,23.646L110.249,26.48Z" style="fill:rgb(35,31,32);fill-rule:nonzero;"/>
        <path d="M104.203,26.48L106.475,26.48L107.039,23.646L104.777,23.646L104.203,26.48Z" style="fill:rgb(35,31,32);fill-rule:nonzero;"/>
        <path d="M73.91,32.433L68.808,32.433L70.6,23.646L27.235,23.646L22.681,46.322L39.971,46.322L41.103,40.654L30.895,40.654L31.514,37.536L41.719,37.536L42.746,32.433L32.539,32.433L33.157,29.314L49.337,29.314L45.921,46.322L53.008,46.322L56.423,29.314L62.373,29.314L58.958,46.322L66.045,46.322L67.794,37.536L72.895,37.536L71.146,46.322L78.232,46.322L82.789,23.646L75.702,23.646L73.91,32.433Z" style="fill:rgb(35,31,32);fill-rule:nonzero;"/>
    </g>
</svg>
