<?xml version="1.0" encoding="UTF-8" standalone="no"?>
<!DOCTYPE svg PUBLIC "-//W3C//DTD SVG 1.1//EN" "http://www.w3.org/Graphics/SVG/1.1/DTD/svg11.dtd">
<svg width="100%" height="100%" viewBox="0 0 1892 337" version="1.1" xmlns="http://www.w3.org/2000/svg" xmlns:xlink="http://www.w3.org/1999/xlink" xml:space="preserve" xmlns:serif="http://www.serif.com/" style="fill-rule:evenodd;clip-rule:evenodd;stroke-linejoin:round;stroke-miterlimit:2;">
    <g id="Layer-1" serif:id="Layer 1" transform="matrix(4.16667,0,0,4.16667,0,0)">
        <g transform="matrix(1,0,0,1,130.518,29.5592)">
            <path d="M0,-5.125L4.283,-5.125C5.501,-5.125 8.65,-5.293 8.65,-8.525C8.65,-11.758 5.165,-11.926 4.283,-11.926L0,-11.926L0,-5.125ZM3.149,0.25L0,0.25L0,11.799C0,11.967 -0.168,12.135 -0.42,12.135L-5.207,12.135C-5.417,12.135 -5.585,11.967 -5.585,11.799L-5.585,-16.924C-5.585,-17.092 -5.417,-17.26 -5.207,-17.26L4.283,-17.26C5.963,-17.26 14.235,-17.176 14.235,-8.525C14.235,-4.031 11.758,-1.68 8.818,-0.631C10.666,3.527 12.64,7.559 14.487,11.672C14.613,11.926 14.445,12.135 14.151,12.135L8.902,12.135C8.776,12.135 8.566,12.008 8.524,11.926L3.149,0.25Z" style="fill:rgb(41,197,244);fill-rule:nonzero;"/>
        </g>
        <g transform="matrix(1,0,0,1,153.997,19.6465)">
            <path d="M0,13.776L5.921,13.776L2.981,4.956L0,13.776ZM7.727,18.729L-1.806,18.729L-2.939,21.839C-2.981,21.964 -3.149,22.047 -3.317,22.047L-8.482,22.047C-8.818,22.047 -8.986,21.839 -8.86,21.585L2.604,-7.978C2.729,-8.271 3.233,-8.271 3.359,-7.978L14.823,21.585C14.949,21.839 14.781,22.047 14.487,22.047L9.28,22.047C9.154,22.047 8.986,21.964 8.944,21.839L7.727,18.729Z" style="fill:rgb(41,197,244);fill-rule:nonzero;"/>
        </g>
        <g transform="matrix(1,0,0,1,184.193,32.9167)">
            <path d="M0,-11.756C0,-15.033 -3.695,-15.201 -4.367,-15.201L-8.734,-15.201L-8.734,-8.44L-4.367,-8.44C-3.611,-8.44 0,-8.524 0,-11.756M5.585,-11.756C5.585,-3.108 -3.653,-3.022 -4.367,-3.022L-8.734,-3.022L-8.734,8.525C-8.734,8.693 -8.86,8.861 -9.112,8.861L-13.899,8.861C-14.109,8.861 -14.277,8.693 -14.277,8.525L-14.277,-20.281C-14.277,-20.449 -14.109,-20.617 -13.899,-20.617L-4.367,-20.617C-3.191,-20.617 5.585,-20.449 5.585,-11.756" style="fill:rgb(41,197,244);fill-rule:nonzero;"/>
        </g>
        <g transform="matrix(1,0,0,1,192.175,41.3584)">
            <path d="M0,-28.723C0,-28.891 0.168,-29.059 0.42,-29.059L5.165,-29.059C5.417,-29.059 5.585,-28.891 5.585,-28.723L5.585,-0C5.585,0.168 5.417,0.336 5.165,0.336L0.42,0.336C0.168,0.336 0,0.168 0,-0L0,-28.723Z" style="fill:rgb(41,197,244);fill-rule:nonzero;"/>
        </g>
        <g transform="matrix(1,0,0,1,207.42,17.5479)">
            <path d="M0,18.898C3.527,19.066 11.045,18.394 11.045,9.365C11.045,1.597 6.342,-0.377 0,-0.041L0,18.898ZM-0.42,-5.248C6.678,-5.248 16.629,-3.569 16.629,9.365C16.629,21.836 6.846,24.146 -0.42,24.146L-5.166,24.146C-5.416,24.146 -5.584,23.978 -5.584,23.81L-5.584,-4.913C-5.584,-5.081 -5.416,-5.248 -5.166,-5.248L-0.42,-5.248Z" style="fill:rgb(41,197,244);fill-rule:nonzero;"/>
        </g>
        <g transform="matrix(1,0,0,1,156.721,42.635)">
            <path d="M0,28.723C0,28.891 -0.168,29.059 -0.42,29.059L-5.165,29.059C-5.417,29.059 -5.585,28.891 -5.585,28.723L-5.585,12.178L-12.976,27.715C-13.018,27.799 -13.228,27.924 -13.354,27.924L-17.847,27.924C-17.973,27.924 -18.141,27.799 -18.183,27.715L-26.119,11.842L-26.119,28.723C-26.119,28.891 -26.287,29.059 -26.539,29.059L-31.284,29.059C-31.536,29.059 -31.704,28.891 -31.704,28.723L-31.704,0C-31.704,-0.168 -31.536,-0.336 -31.284,-0.336L-26.455,-0.336C-26.329,-0.336 -26.119,-0.209 -26.077,-0.127L-15.621,21.5L-5.627,-0.127C-5.585,-0.209 -5.375,-0.336 -5.249,-0.336L-0.42,-0.336C-0.168,-0.336 0,-0.168 0,0L0,28.723Z" style="fill:rgb(0,150,219);fill-rule:nonzero;"/>
        </g>
        <g transform="matrix(1,0,0,1,167.31,49.6465)">
            <path d="M0,13.776L5.921,13.776L2.981,4.956L0,13.776ZM7.727,18.729L-1.806,18.729L-2.939,21.839C-2.981,21.964 -3.149,22.047 -3.317,22.047L-8.482,22.047C-8.818,22.047 -8.986,21.839 -8.86,21.585L2.604,-7.978C2.729,-8.271 3.233,-8.271 3.359,-7.978L14.823,21.585C14.949,21.839 14.781,22.047 14.487,22.047L9.28,22.047C9.154,22.047 8.986,21.964 8.944,21.839L7.727,18.729Z" style="fill:rgb(0,150,219);fill-rule:nonzero;"/>
        </g>
        <g transform="matrix(1,0,0,1,207.795,42.594)">
            <path d="M0,28.764C0,28.932 -0.168,29.1 -0.42,29.1L-5.207,29.1C-5.291,29.1 -5.502,29.059 -5.543,28.973L-18.98,9.407L-18.98,28.764C-18.98,28.932 -19.148,29.1 -19.358,29.1L-24.146,29.1C-24.397,29.1 -24.523,28.932 -24.523,28.764L-24.523,0C-24.523,-0.168 -24.397,-0.336 -24.146,-0.336L-19.316,-0.336C-19.232,-0.336 -19.064,-0.295 -19.022,-0.211L-5.543,19.526L-5.543,0C-5.543,-0.168 -5.375,-0.336 -5.123,-0.336L-0.42,-0.336C-0.168,-0.336 0,-0.168 0,0L0,28.764Z" style="fill:rgb(0,150,219);fill-rule:nonzero;"/>
        </g>
        <g transform="matrix(1,0,0,1,212.293,52.4187)">
            <path d="M0,9.828L0,-9.531C0,-9.699 0.168,-9.867 0.42,-9.867L5.164,-9.867C5.418,-9.867 5.586,-9.699 5.586,-9.531L5.586,9.785C5.922,12.724 8.355,14.277 11.086,14.277C13.857,14.277 16.586,12.808 16.586,9.828L16.586,-9.531C16.586,-9.699 16.754,-9.867 17.008,-9.867L21.793,-9.867C22.004,-9.867 22.172,-9.699 22.172,-9.531L22.172,9.828C22.172,16.084 17.385,19.695 11.086,19.695C4.996,19.695 0,15.916 0,9.828" style="fill:rgb(0,150,219);fill-rule:nonzero;"/>
        </g>
        <g transform="matrix(1,0,0,1,244.422,66.2763)">
            <path d="M0,-18.307L0,-11.842L11.463,-11.842C11.715,-11.842 11.84,-11.674 11.84,-11.506L11.84,-6.803C11.84,-6.635 11.715,-6.467 11.463,-6.467L0,-6.467L0,5.082C0,5.25 -0.127,5.418 -0.379,5.418L-5.166,5.418C-5.375,5.418 -5.543,5.25 -5.543,5.082L-5.543,-23.389C-5.543,-23.557 -5.375,-23.725 -5.166,-23.725L13.855,-23.725C14.109,-23.725 14.277,-23.557 14.277,-23.389L14.277,-18.643C14.277,-18.475 14.109,-18.307 13.855,-18.307L0,-18.307Z" style="fill:rgb(0,150,219);fill-rule:nonzero;"/>
        </g>
        <g transform="matrix(1,0,0,1,267.101,49.6465)">
            <path d="M0,13.776L5.92,13.776L2.98,4.956L0,13.776ZM7.727,18.729L-1.807,18.729L-2.941,21.839C-2.982,21.964 -3.15,22.047 -3.318,22.047L-8.484,22.047C-8.82,22.047 -8.988,21.839 -8.861,21.585L2.602,-7.978C2.729,-8.271 3.232,-8.271 3.359,-7.978L14.822,21.585C14.949,21.839 14.781,22.047 14.486,22.047L9.279,22.047C9.152,22.047 8.984,21.964 8.943,21.839L7.727,18.729Z" style="fill:rgb(0,150,219);fill-rule:nonzero;"/>
        </g>
        <g transform="matrix(1,0,0,1,303.175,49.9844)">
            <path d="M0,14.024C0.168,13.899 0.422,13.899 0.59,14.024L3.906,17.383C4.074,17.51 4.074,17.762 3.906,17.887C1.303,20.493 -2.352,22.129 -6.424,22.129C-14.486,22.129 -21.121,16.294 -21.121,7.137C-21.121,-1.638 -15.031,-8.105 -6.424,-8.105C-2.352,-8.105 1.303,-6.509 3.906,-3.863C4.074,-3.738 4.074,-3.486 3.906,-3.359L0.59,-0.042C0.422,0.083 0.168,0.083 0,-0.042C-1.68,-1.679 -3.945,-2.73 -6.424,-2.73C-12.051,-2.73 -15.453,1.594 -15.453,7.137C-15.453,13.059 -11.422,16.712 -6.424,16.712C-3.945,16.712 -1.68,15.704 0,14.024" style="fill:rgb(0,150,219);fill-rule:nonzero;"/>
        </g>
        <g transform="matrix(1,0,0,1,325.101,66.9905)">
            <path d="M0,-19.736C0,-19.568 -0.168,-19.443 -0.422,-19.443L-6.006,-19.443L-6.006,4.368C-6.006,4.535 -6.133,4.703 -6.383,4.703L-11.129,4.703C-11.381,4.703 -11.508,4.535 -11.508,4.368L-11.508,-19.443L-17.092,-19.443C-17.344,-19.443 -17.512,-19.568 -17.512,-19.736L-17.512,-24.103C-17.512,-24.271 -17.344,-24.439 -17.092,-24.439L-0.422,-24.439C-0.168,-24.439 0,-24.271 0,-24.103L0,-19.736Z" style="fill:rgb(0,150,219);fill-rule:nonzero;"/>
        </g>
        <g transform="matrix(1,0,0,1,326.785,52.4187)">
            <path d="M0,9.828L0,-9.531C0,-9.699 0.168,-9.867 0.418,-9.867L5.164,-9.867C5.416,-9.867 5.584,-9.699 5.584,-9.531L5.584,9.785C5.92,12.724 8.355,14.277 11.086,14.277C13.855,14.277 16.586,12.808 16.586,9.828L16.586,-9.531C16.586,-9.699 16.754,-9.867 17.006,-9.867L21.793,-9.867C22.004,-9.867 22.172,-9.699 22.172,-9.531L22.172,9.828C22.172,16.084 17.383,19.695 11.086,19.695C4.996,19.695 0,15.916 0,9.828" style="fill:rgb(0,150,219);fill-rule:nonzero;"/>
        </g>
        <g transform="matrix(1,0,0,1,358.912,59.5592)">
            <path d="M0,-5.125L4.283,-5.125C5.502,-5.125 8.65,-5.293 8.65,-8.525C8.65,-11.758 5.166,-11.926 4.283,-11.926L0,-11.926L0,-5.125ZM3.15,0.25L0,0.25L0,11.799C0,11.967 -0.168,12.135 -0.42,12.135L-5.207,12.135C-5.416,12.135 -5.584,11.967 -5.584,11.799L-5.584,-16.924C-5.584,-17.092 -5.416,-17.26 -5.207,-17.26L4.283,-17.26C5.963,-17.26 14.236,-17.176 14.236,-8.525C14.236,-4.031 11.758,-1.68 8.818,-0.631C10.666,3.527 12.639,7.559 14.486,11.672C14.613,11.926 14.445,12.135 14.15,12.135L8.902,12.135C8.775,12.135 8.566,12.008 8.525,11.926L3.15,0.25Z" style="fill:rgb(0,150,219);fill-rule:nonzero;"/>
        </g>
        <g transform="matrix(1,0,0,1,376.427,71.3584)">
            <path d="M0,-28.723C0,-28.891 0.168,-29.059 0.42,-29.059L5.166,-29.059C5.416,-29.059 5.584,-28.891 5.584,-28.723L5.584,-0C5.584,0.168 5.416,0.336 5.166,0.336L0.42,0.336C0.168,0.336 0,0.168 0,-0L0,-28.723Z" style="fill:rgb(0,150,219);fill-rule:nonzero;"/>
        </g>
        <g transform="matrix(1,0,0,1,410.652,42.594)">
            <path d="M0,28.764C0,28.932 -0.168,29.1 -0.418,29.1L-5.207,29.1C-5.289,29.1 -5.5,29.059 -5.543,28.973L-18.98,9.407L-18.98,28.764C-18.98,28.932 -19.148,29.1 -19.357,29.1L-24.145,29.1C-24.396,29.1 -24.523,28.932 -24.523,28.764L-24.523,0C-24.523,-0.168 -24.396,-0.336 -24.145,-0.336L-19.316,-0.336C-19.23,-0.336 -19.062,-0.295 -19.021,-0.211L-5.543,19.526L-5.543,0C-5.543,-0.168 -5.375,-0.336 -5.121,-0.336L-0.418,-0.336C-0.168,-0.336 0,-0.168 0,0L0,28.764Z" style="fill:rgb(0,150,219);fill-rule:nonzero;"/>
        </g>
        <g transform="matrix(1,0,0,1,441.017,59.3481)">
            <path d="M0,-4.66C0.252,-4.66 0.42,-4.492 0.42,-4.324L0.42,12.094C0.42,12.262 0.252,12.43 0,12.43L-4.199,12.43C-4.408,12.43 -4.576,12.305 -4.576,12.137L-4.744,9.574C-6.887,11.715 -9.322,12.809 -12.557,12.809C-20.492,12.809 -26.707,7.307 -26.707,-2.351C-26.707,-11.086 -20.115,-17.469 -11.967,-17.469C-7.854,-17.469 -4.199,-15.873 -1.553,-13.185C-1.385,-13.058 -1.385,-12.808 -1.553,-12.681L-4.912,-9.322C-5.08,-9.195 -5.334,-9.195 -5.502,-9.322C-7.139,-10.961 -9.447,-12.051 -11.967,-12.051C-17.006,-12.051 -21.08,-8.441 -21.08,-2.351C-21.08,4.451 -17.006,7.348 -11.967,7.348C-9.279,7.348 -6.803,6.172 -5.08,4.283L-5.08,0.252L-12.389,0.252C-12.639,0.252 -12.807,0.084 -12.807,-0.084L-12.807,-4.324C-12.807,-4.492 -12.639,-4.66 -12.389,-4.66L0,-4.66Z" style="fill:rgb(0,150,219);fill-rule:nonzero;"/>
        </g>
        <g transform="matrix(0,-60.64,-60.64,0,56.9711,72.014)">
            <path d="M1,0.527L0.5,0.815L0.353,0.731L0,0.527L0,0.359L0.353,0.561L0.353,0.255L0,0.051L0,-0.119L0.059,-0.085L0.147,-0.034L0.206,-0L0.353,0.085L0.5,0.17L0.794,-0L0.5,-0.17L0.5,-0.339L0.853,-0.135L0.853,-0.442L0.5,-0.646C0.352,-0.561 0.148,-0.442 0,-0.358L0,-0.528L0.001,-0.527C0.152,-0.614 0.349,-0.728 0.5,-0.815L1,-0.527L1,0.527ZM0.853,0.442L0.853,0.135L0.5,0.339L0.5,0.646L0.853,0.442Z" style="fill:url(#_Linear1);fill-rule:nonzero;"/>
        </g>
    </g>
    <defs>
        <linearGradient id="_Linear1" x1="0" y1="0" x2="1" y2="0" gradientUnits="userSpaceOnUse" gradientTransform="matrix(1,0,0,-1,0,-1.37269e-05)"><stop offset="0" style="stop-color:rgb(30,132,198);stop-opacity:1"/><stop offset="1" style="stop-color:rgb(41,197,244);stop-opacity:1"/></linearGradient>
    </defs>
</svg>
