<?xml version="1.0" encoding="UTF-8" standalone="no"?>
<!DOCTYPE svg PUBLIC "-//W3C//DTD SVG 1.1//EN" "http://www.w3.org/Graphics/SVG/1.1/DTD/svg11.dtd">
<svg width="100%" height="100%" viewBox="0 0 9334 2251" version="1.1" xmlns="http://www.w3.org/2000/svg" xmlns:xlink="http://www.w3.org/1999/xlink" xml:space="preserve" xmlns:serif="http://www.serif.com/" style="fill-rule:evenodd;clip-rule:evenodd;stroke-linejoin:round;stroke-miterlimit:2;">
    <g id="Ebene-1" serif:id="Ebene 1" transform="matrix(4.16667,0,0,4.16667,0,0)">
        <g transform="matrix(1,0,0,1,646.858,321.607)">
            <path d="M0,-185.729L-47.505,-185.963L-100.265,-65.49L-149.655,-170.449C-153.512,-176.444 -159.379,-180.503 -169.497,-180.503C-178.878,-180.503 -186.917,-175.618 -190.357,-168.65L-238.273,-65.49L-289.86,-184.77L-336.342,-184.77L-263.127,-13.286C-259.907,-5.454 -250.407,0.234 -239.191,0.234C-227.963,0.234 -218.45,-5.465 -215.242,-13.324L-168.967,-113.567L-124.127,-15.021C-120.432,-6.052 -111.044,0.234 -100.097,0.234C-88.812,0.234 -80.286,-5.75 -76.666,-13.848L0,-185.729Z" style="fill:rgb(232,31,33);fill-rule:nonzero;"/>
        </g>
        <g transform="matrix(1,0,0,1,823.402,176.406)">
            <path d="M0,100.804C-15.246,100.804 -65.62,101.922 -65.62,101.922C-91.061,101.922 -106.317,101.801 -115.919,98.879C-131.042,94.279 -130.999,82.222 -130.999,82.222C-130.999,82.222 -131.754,72.881 -130.999,68.886C-130.244,64.89 -129.345,58.023 -115.62,54.041C-106.026,51.257 -90.167,51.92 -65.737,51.92L22.595,51.92L22.595,81.206C22.595,81.711 24.448,100.804 0,100.804M66.936,94.215L66.936,16.751C66.936,-44.037 -10.648,-40.654 -10.648,-40.654L-59.664,-40.654L-59.664,0.89L-2.715,1.092C18.125,1.092 17.926,9.631 17.926,9.631L-93.787,9.631C-173.785,9.631 -175.296,51.144 -176.338,60.251C-178.579,79.837 -176.338,93.401 -176.338,93.401C-176.338,93.401 -171.389,144.841 -93.787,144.841L-93.787,144.835L-10.648,144.835C72.49,144.835 66.936,94.215 66.936,94.215" style="fill:rgb(232,31,33);fill-rule:nonzero;"/>
        </g>
        <g transform="matrix(1,0,0,1,1550.19,178.01)">
            <path d="M0,99.592C-39.679,99.592 -68.309,99.996 -68.309,99.996C-68.309,99.996 -109.185,100.539 -109.185,78.321L-109.185,19.881C-109.185,19.881 -109.716,0.624 -67.771,0.624C-25.828,0.624 0.799,0.359 0.799,0.359C0.799,0.359 37.681,1.306 37.681,18.404L37.817,81.414C37.817,81.414 40.477,99.592 0,99.592M85.217,86.463L84.948,18.814C86.796,-43.438 12.882,-42.359 12.882,-42.359L-78.981,-42.094C-159.768,-37.499 -156.328,18.537 -156.328,18.537L-156.59,61.564L-156.597,86.193L-156.597,86.433C-156.347,141.95 -70.274,143.03 -70.274,143.03L7.414,143.03C87.501,143.03 85.217,86.463 85.217,86.463" style="fill:rgb(232,31,33);fill-rule:nonzero;"/>
        </g>
        <g transform="matrix(1,0,0,1,1890.53,135.589)">
            <path d="M0,185.551L-0.112,51.131C-0.112,51.131 6.342,-0.102 -72.353,-0.102L-154.53,0.233C-231.296,0.233 -227.832,51.736 -227.832,51.736L-227.532,185.647L-183.99,185.653L-184.09,55.978C-184.09,55.978 -184.19,42.243 -146.641,42.243L-80.43,42.041C-42.88,42.041 -43.679,55.978 -43.679,55.978L-43.679,185.551L0,185.551Z" style="fill:rgb(232,31,33);fill-rule:nonzero;"/>
        </g>
        <g transform="matrix(-1,0,0,1,3878.43,-83.171)">
            <rect x="1916.82" y="218.86" width="44.79" height="185.527" style="fill:rgb(232,31,33);"/>
        </g>
        <g transform="matrix(1,0,0,1,2230.04,318.8)">
            <path d="M0,-183.181L-173.459,-183.181C-173.459,-183.181 -243.656,-185.623 -243.656,-129.007L-243.656,-56.409C-243.656,-56.409 -250.099,2.34 -172.273,2.34C-94.448,2.34 0.112,2.442 0.112,2.442L0.124,-39.753L-158.963,-39.886C-158.963,-39.886 -197.36,-39.354 -197.36,-56.144L-197.36,-125.756C-197.36,-125.756 -199.209,-140.659 -161.499,-140.659L0,-140.659L0,-183.181Z" style="fill:rgb(232,31,33);fill-rule:nonzero;"/>
        </g>
        <g transform="matrix(1,0,0,1,919.779,248.556)">
            <path d="M0,10.496L0.075,-112.848L43.173,-112.823L43.099,10.521C43.099,10.521 41.619,29.696 73.788,29.696L167.531,29.696L167.531,-112.848L207.739,-112.848L207.739,69.485C207.739,69.485 206.94,114.191 159.005,118.767C111.069,123.344 94.03,121.456 94.03,121.456L94.292,79.717L151.814,78.909C151.814,78.909 165.403,77.703 166.732,72.383L70.324,72.458C70.324,72.458 0,75.109 0,11.852L0,10.496Z" style="fill:rgb(232,31,33);fill-rule:nonzero;"/>
        </g>
        <g transform="matrix(1,0,0,1,1371.63,319.196)">
            <path d="M0,-183.57C0,-183.57 -45.314,-185.59 -79.362,-178.193C-121.031,-169.142 -118.716,-122.46 -118.716,-122.46L-118.791,1.995L-75.692,2.02L-75.617,-122.434C-75.617,-122.434 -75.636,-140.36 -47.674,-140.827C-19.711,-141.294 0,-140.827 0,-140.827L0,-183.57Z" style="fill:rgb(232,31,33);fill-rule:nonzero;"/>
        </g>
        <g transform="matrix(1,0,0,1,111.982,321.437)">
            <path d="M0,-307.003C-98.667,-305.589 -99.133,-238.533 -99.133,-238.533C-99.133,-238.533 -102.337,-212.27 -99.133,-190.33C-89.679,-125.628 0,-127.244 0,-127.244L95.871,-127.244C135.219,-127.244 139.613,-106.844 139.613,-106.844C139.613,-106.844 142.01,-102.199 139.613,-83.617C136.205,-57.183 95.535,-56.42 95.535,-56.42L-101.27,-57.323L-101.298,-0.257L106.857,0C196.337,0 196.062,-62.751 197.535,-75.942C199.008,-89.134 197.535,-110.411 197.535,-110.411C197.535,-188.777 84.886,-186.221 84.886,-186.221C84.886,-186.221 70.243,-186.006 13.117,-186.221C-40.545,-186.423 -40.654,-202.676 -41.21,-207.763C-41.9,-214.1 -41.21,-225.941 -41.21,-225.941C-39.946,-250.854 6.058,-249.913 6.058,-249.913L1047.36,-249.774L1047.36,-244.081L1015.64,-244.182L1015.64,-189.85L1047.33,-189.85L1047.33,-0.22L1103.78,-0.22L1103.88,-189.85L2117.97,-189.857L2117.97,-242.566L1103.79,-244.106L1103.78,-307.003L0,-307.003L95.871,-307.003L0,-307.003Z" style="fill:rgb(12,18,14);fill-rule:nonzero;"/>
        </g>
        <g transform="matrix(0,-1,-1,0,1938.77,73.1669)">
            <path d="M-31.626,-31.62C-45.751,-31.62 -57.208,-17.458 -57.208,0.006C-57.208,17.464 -45.751,31.626 -31.626,31.626C-17.494,31.626 -6.038,17.464 -6.038,0.006C-6.038,-17.458 -17.494,-31.62 -31.626,-31.62" style="fill:rgb(232,31,33);fill-rule:nonzero;"/>
        </g>
        <g transform="matrix(-1,0,0,1,3877.59,-329.924)">
            <rect x="1930.84" y="413.234" width="15.912" height="43.532" style="fill:white;"/>
        </g>
        <g transform="matrix(-1,0,0,1,3876.92,-330.574)">
            <rect x="1916.25" y="427.528" width="44.423" height="15.594" style="fill:white;"/>
        </g>
    </g>
    <g id="Leistung-am-Limit" serif:id="Leistung am Limit" transform="matrix(4.16667,0,0,4.16667,0,0)">
        <g transform="matrix(1,0,0,1,1164.11,371.146)">
            <path d="M0,58.829L0,0L22.605,0L22.605,43.877L53.044,43.877L53.044,58.829L0,58.829Z" style="fill:rgb(12,18,14);fill-rule:nonzero;"/>
        </g>
        <g transform="matrix(1,0,0,1,1246.17,416.001)">
            <path d="M0,-17.621C-1.544,-17.621 -2.313,-16.938 -2.313,-15.574C-2.313,-14.031 -1.544,-13.261 0,-13.261L22.072,-13.261C23.437,-13.261 24.119,-14.031 24.119,-15.574C24.119,-16.938 23.437,-17.621 22.072,-17.621L0,-17.621ZM-1.157,13.974C-5.133,13.974 -8.53,13.707 -11.348,13.173C-14.166,12.639 -16.48,11.734 -18.289,10.458C-20.1,9.183 -21.435,7.522 -22.294,5.475C-23.155,3.427 -23.585,0.891 -23.585,-2.136L-23.585,-17.621C-23.585,-22.546 -21.836,-26.105 -18.334,-28.302C-14.834,-30.496 -9.612,-31.595 -2.67,-31.595L29.993,-31.595C35.808,-31.595 39.931,-30.615 42.364,-28.657C44.796,-26.699 46.013,-23.642 46.013,-19.49L46.013,-15.842C46.013,-13.527 45.775,-11.628 45.301,-10.145C44.825,-8.661 43.995,-7.489 42.81,-6.63C41.621,-5.769 39.975,-5.175 37.87,-4.85C35.763,-4.523 33.077,-4.36 29.815,-4.36L-1.157,-4.36C-1.157,-3.351 -1.067,-2.536 -0.89,-1.913C-0.712,-1.29 -0.387,-0.829 0.089,-0.533C0.563,-0.235 1.23,-0.044 2.092,0.045C2.951,0.134 4.063,0.179 5.429,0.179L43.254,0.179L43.254,13.974L-1.157,13.974Z" style="fill:rgb(12,18,14);fill-rule:nonzero;"/>
        </g>
        <g transform="matrix(1,0,0,1,0,261.045)">
            <path d="M1299.48,127.723L1322.17,127.723L1322.17,168.93L1299.48,168.93L1299.48,127.723ZM1299.48,110.101L1322.17,110.101L1322.17,123.54L1299.48,123.54L1299.48,110.101Z" style="fill:rgb(12,18,14);fill-rule:nonzero;"/>
        </g>
        <g transform="matrix(1,0,0,1,1400.94,397.223)">
            <path d="M0,19.936C0,22.37 -0.268,24.402 -0.802,26.033C-1.335,27.665 -2.285,28.97 -3.649,29.949C-5.015,30.928 -6.84,31.64 -9.123,32.084C-11.407,32.53 -14.329,32.752 -17.89,32.752L-71.557,32.752L-71.557,18.957L-24.564,18.957C-22.784,18.957 -21.895,18.246 -21.895,16.822C-21.895,15.219 -22.784,14.418 -24.564,14.418L-53.935,14.418C-59.928,14.418 -64.362,13.573 -67.24,11.882C-70.118,10.191 -71.557,7.269 -71.557,3.116L-71.557,-1.068C-71.557,-3.381 -71.2,-5.295 -70.488,-6.808C-69.776,-8.321 -68.664,-9.523 -67.151,-10.413C-65.638,-11.302 -63.725,-11.925 -61.41,-12.282C-59.097,-12.637 -56.338,-12.816 -53.134,-12.816L-5.964,-12.816L-5.964,1.069L-46.103,1.069C-48.061,1.069 -49.039,1.87 -49.039,3.471C-49.039,5.015 -48.061,5.786 -46.103,5.786L-17.89,5.786C-14.329,5.786 -11.407,6.023 -9.123,6.498C-6.84,6.973 -5.015,7.685 -3.649,8.633C-2.285,9.583 -1.335,10.8 -0.802,12.283C-0.268,13.766 0,15.517 0,17.534L0,19.936Z" style="fill:rgb(12,18,14);fill-rule:nonzero;"/>
        </g>
        <g transform="matrix(1,0,0,1,1430.58,371.146)">
            <path d="M0,58.829C-4.214,58.829 -7.743,58.637 -10.591,58.251C-13.439,57.865 -15.753,57.138 -17.533,56.07C-19.313,55.002 -20.59,53.564 -21.36,51.754C-22.132,49.944 -22.518,47.615 -22.518,44.767L-22.518,0L0,0L0,13.261L11.125,13.261L11.125,27.412L0,27.412L0,41.029C0,42.217 0.207,42.974 0.623,43.299C1.037,43.625 1.927,43.818 3.293,43.877L16.376,43.877L16.376,58.829L0,58.829Z" style="fill:rgb(12,18,14);fill-rule:nonzero;"/>
        </g>
        <g transform="matrix(1,0,0,1,1500.17,384.407)">
            <path d="M0,45.568L0,42.542C-1.009,44.56 -3.857,45.568 -8.544,45.568L-25.187,45.568C-29.519,45.568 -33.123,45.361 -36,44.945C-38.879,44.531 -41.192,43.803 -42.942,42.764C-44.693,41.727 -45.938,40.288 -46.68,38.448C-47.423,36.61 -47.793,34.265 -47.793,31.417L-47.793,0L-25.364,0L-25.364,27.679C-25.364,28.51 -25.187,29.192 -24.831,29.726C-24.475,30.26 -23.94,30.527 -23.229,30.527L-2.225,30.527C-1.454,30.527 -0.89,30.26 -0.533,29.726C-0.178,29.192 0,28.51 0,27.679L0,0L22.429,0L22.429,45.568L0,45.568Z" style="fill:rgb(12,18,14);fill-rule:nonzero;"/>
        </g>
        <g transform="matrix(1,0,0,1,1580.45,384.407)">
            <path d="M0,45.568L0,17.978C0,17.148 -0.192,16.451 -0.578,15.886C-0.965,15.323 -1.632,15.041 -2.58,15.041L-24.563,15.041C-25.275,15.041 -25.81,15.323 -26.165,15.886C-26.521,16.451 -26.699,17.148 -26.699,17.978L-26.699,45.568L-49.217,45.568L-49.217,0L-26.699,0L-26.699,2.937C-25.396,0.979 -22.517,0 -18.066,0L-0.178,0C3.797,0 7.21,0.209 10.058,0.623C12.905,1.039 15.249,1.766 17.089,2.803C18.927,3.842 20.277,5.266 21.138,7.076C21.997,8.886 22.429,11.214 22.429,14.062L22.429,45.568L0,45.568Z" style="fill:rgb(12,18,14);fill-rule:nonzero;"/>
        </g>
        <g transform="matrix(1,0,0,1,1657.43,433.179)">
            <path d="M0,-33.731L-21.448,-33.731C-22.754,-33.731 -23.57,-33.567 -23.896,-33.241C-24.223,-32.915 -24.386,-32.098 -24.386,-30.793L-24.386,-22.606C-24.386,-20.706 -23.406,-19.757 -21.448,-19.757L0,-19.757L0,-33.731ZM-15.485,15.041L-15.485,0.089L-2.937,0.089C-1.868,0.089 -1.112,-0.164 -0.667,-0.668C-0.222,-1.172 0,-1.928 0,-2.937L0,-5.518L-24.386,-5.518C-28.599,-5.518 -32.144,-5.71 -35.021,-6.096C-37.899,-6.481 -40.214,-7.178 -41.963,-8.188C-43.714,-9.196 -44.96,-10.62 -45.701,-12.46C-46.443,-14.298 -46.813,-16.701 -46.813,-19.669L-46.813,-34.71C-46.813,-37.616 -46.429,-39.974 -45.656,-41.785C-44.886,-43.594 -43.625,-45.018 -41.874,-46.057C-40.125,-47.094 -37.824,-47.806 -34.977,-48.193C-32.129,-48.579 -28.599,-48.772 -24.386,-48.772L22.518,-48.772L22.518,0.89C22.518,3.857 22.161,6.275 21.449,8.144C20.737,10.013 19.67,11.451 18.245,12.46C16.821,13.468 15.026,14.152 12.861,14.507C10.694,14.864 8.158,15.041 5.252,15.041L-15.485,15.041Z" style="fill:rgb(12,18,14);fill-rule:nonzero;"/>
        </g>
        <g transform="matrix(1,0,0,1,1763.96,403.275)">
            <path d="M0,7.832L-23.229,7.832C-24.535,7.832 -25.187,8.782 -25.187,10.681C-25.187,12.401 -24.535,13.261 -23.229,13.261L0,13.261L0,7.832ZM-24.92,26.7C-29.074,26.7 -32.561,26.522 -35.378,26.166C-38.196,25.811 -40.481,25.143 -42.23,24.164C-43.981,23.185 -45.228,21.836 -45.969,20.114C-46.711,18.394 -47.081,16.198 -47.081,13.528L-47.081,11.303C-47.081,8.811 -46.829,6.779 -46.324,5.207C-45.821,3.636 -44.767,2.403 -43.165,1.514C-41.563,0.623 -39.294,0 -36.356,-0.356C-33.42,-0.712 -29.519,-0.89 -24.653,-0.89L0,-0.89L0,-1.335C0,-3.055 -0.387,-4.183 -1.157,-4.717C-1.929,-5.251 -3.413,-5.518 -5.607,-5.518L-44.322,-5.518L-44.322,-18.868L-0.089,-18.868C4.123,-18.868 7.668,-18.675 10.547,-18.289C13.424,-17.902 15.753,-17.19 17.533,-16.153C19.312,-15.114 20.588,-13.675 21.36,-11.837C22.13,-9.997 22.517,-7.653 22.517,-4.806L22.517,26.7L-24.92,26.7Z" style="fill:rgb(12,18,14);fill-rule:nonzero;"/>
        </g>
        <g transform="matrix(1,0,0,1,1872.54,384.407)">
            <path d="M0,45.568L0,17.978C0,16.02 -0.712,15.041 -2.136,15.041L-14.15,15.041C-14.923,15.041 -15.485,15.323 -15.842,15.886C-16.198,16.451 -16.376,17.148 -16.376,17.978L-16.376,45.568L-38.893,45.568L-38.893,18.067C-38.893,16.881 -39.16,16.08 -39.693,15.664C-40.228,15.25 -40.91,15.041 -41.741,15.041L-52.866,15.041C-53.578,15.041 -54.111,15.323 -54.468,15.886C-54.824,16.451 -55.002,17.148 -55.002,17.978L-55.002,45.568L-77.519,45.568L-77.519,0L-55.002,0L-55.002,2.937C-53.697,0.979 -50.818,0 -46.369,0L-40.139,0C-36.876,0 -34.131,0.075 -31.906,0.222C-29.682,0.372 -27.856,0.623 -26.433,0.979C-25.009,1.335 -23.911,1.81 -23.14,2.403C-22.369,2.997 -21.746,3.709 -21.271,4.539C-19.61,1.513 -15.457,0 -8.811,0L-0.267,0C3.945,0 7.49,0.209 10.369,0.623C13.246,1.039 15.56,1.78 17.311,2.848C19.061,3.916 20.321,5.355 21.093,7.165C21.863,8.975 22.25,11.274 22.25,14.062L22.25,45.568L0,45.568Z" style="fill:rgb(12,18,14);fill-rule:nonzero;"/>
        </g>
        <g transform="matrix(1,0,0,1,1932.71,371.146)">
            <path d="M0,58.829L0,0L22.605,0L22.605,43.877L53.044,43.877L53.044,58.829L0,58.829Z" style="fill:rgb(12,18,14);fill-rule:nonzero;"/>
        </g>
        <g transform="matrix(1,0,0,1,0,261.045)">
            <path d="M1991.62,127.723L2014.32,127.723L2014.32,168.93L1991.62,168.93L1991.62,127.723ZM1991.62,110.101L2014.32,110.101L2014.32,123.54L1991.62,123.54L1991.62,110.101Z" style="fill:rgb(12,18,14);fill-rule:nonzero;"/>
        </g>
        <g transform="matrix(1,0,0,1,2100.38,384.407)">
            <path d="M0,45.568L0,17.978C0,16.02 -0.712,15.041 -2.137,15.041L-14.151,15.041C-14.923,15.041 -15.486,15.323 -15.842,15.886C-16.198,16.451 -16.376,17.148 -16.376,17.978L-16.376,45.568L-38.894,45.568L-38.894,18.067C-38.894,16.881 -39.16,16.08 -39.694,15.664C-40.229,15.25 -40.911,15.041 -41.741,15.041L-52.866,15.041C-53.578,15.041 -54.112,15.323 -54.468,15.886C-54.824,16.451 -55.002,17.148 -55.002,17.978L-55.002,45.568L-77.52,45.568L-77.52,0L-55.002,0L-55.002,2.937C-53.698,0.979 -50.819,0 -46.369,0L-40.14,0C-36.877,0 -34.132,0.075 -31.907,0.222C-29.682,0.372 -27.857,0.623 -26.434,0.979C-25.009,1.335 -23.912,1.81 -23.141,2.403C-22.37,2.997 -21.747,3.709 -21.271,4.539C-19.611,1.513 -15.457,0 -8.812,0L-0.268,0C3.945,0 7.489,0.209 10.368,0.623C13.245,1.039 15.56,1.78 17.311,2.848C19.06,3.916 20.321,5.355 21.093,7.165C21.863,8.975 22.25,11.274 22.25,14.062L22.25,45.568L0,45.568Z" style="fill:rgb(12,18,14);fill-rule:nonzero;"/>
        </g>
        <g transform="matrix(1,0,0,1,0,261.045)">
            <path d="M2131,127.723L2153.69,127.723L2153.69,168.93L2131,168.93L2131,127.723ZM2131,110.101L2153.69,110.101L2153.69,123.54L2131,123.54L2131,110.101Z" style="fill:rgb(12,18,14);fill-rule:nonzero;"/>
        </g>
        <g transform="matrix(1,0,0,1,2184.75,371.146)">
            <path d="M0,58.829C-4.214,58.829 -7.743,58.637 -10.591,58.251C-13.438,57.865 -15.753,57.138 -17.533,56.07C-19.312,55.002 -20.59,53.564 -21.359,51.754C-22.132,49.944 -22.517,47.615 -22.517,44.767L-22.517,0L0,0L0,13.261L11.125,13.261L11.125,27.412L0,27.412L0,41.029C0,42.217 0.207,42.974 0.623,43.299C1.037,43.625 1.928,43.818 3.293,43.877L16.376,43.877L16.376,58.829L0,58.829Z" style="fill:rgb(12,18,14);fill-rule:nonzero;"/>
        </g>
        <g transform="matrix(1,0,0,1,0,306.435)">
            <rect x="2206.11" y="110.101" width="22.605" height="13.439" style="fill:rgb(12,18,14);"/>
        </g>
    </g>
</svg>
